<?xml version="1.0" encoding="UTF-8" standalone="no"?>
<svg xmlns="http://www.w3.org/2000/svg" viewBox="0 0 512 512" >
   <g transform="translate(-140.85,-179.95)">
      <path d="M 396.9,356.1 H 227.2 c -16.6,0 -30,-13.4 -30,-30 v -99.8 c 0,-16.6 13.4,-30 30,-30 h 139.7 c 16.6,0 30,13.4 30,30 z" />
      <path d="M 566.6,515.8 H 396.9 V 356.1 h 169.7 c 16.5,0 29.9,13.4 29.9,29.9 v 99.8 c 0,16.6 -13.4,30 -29.9,30 z" />
      <path d="M 366.9,675.6 H 227.2 c -16.5,0 -29.9,-13.4 -29.9,-29.9 v -99.8 c 0,-16.5 13.4,-29.9 29.9,-29.9 h 169.7 v 129.8 c 0,16.3 -13.4,29.8 -30,29.8 z" />
   </g>
</svg>
