<?xml version="1.0" encoding="UTF-8" standalone="no"?>
<!-- Generator: Adobe Illustrator 26.1.0, SVG Export Plug-In . SVG Version: 6.00 Build 0)  -->

<svg
   version="1.1"
   id="Artwork"
   x="0px"
   y="0px"
   viewBox="0 0 512.00001 512"
   xml:space="preserve"
   width="512"
   height="512"
   xmlns="http://www.w3.org/2000/svg"
   xmlns:svg="http://www.w3.org/2000/svg"><defs
   id="defs3" />
<style
   type="text/css"
   id="style1">
	.st0{fill:#F5640C;}
</style>
<g
   id="g3"
   style="fill:#000000"
   transform="translate(-140.85,-179.95)">
	<path
   class="st0"
   d="M 396.9,356.1 H 227.2 c -16.6,0 -30,-13.4 -30,-30 v -99.8 c 0,-16.6 13.4,-30 30,-30 h 139.7 c 16.6,0 30,13.4 30,30 z"
   id="path1"
   style="fill:#000000" />
	<path
   class="st0"
   d="M 566.6,515.8 H 396.9 V 356.1 h 169.7 c 16.5,0 29.9,13.4 29.9,29.9 v 99.8 c 0,16.6 -13.4,30 -29.9,30 z"
   id="path2"
   style="fill:#000000" />
	<path
   class="st0"
   d="M 366.9,675.6 H 227.2 c -16.5,0 -29.9,-13.4 -29.9,-29.9 v -99.8 c 0,-16.5 13.4,-29.9 29.9,-29.9 h 169.7 v 129.8 c 0,16.3 -13.4,29.8 -30,29.8 z"
   id="path3"
   style="fill:#000000" />
</g>
</svg>
